# xmcd
# Copyright (C) 1995-1998 Ti Kan
#
# Track frame offsets:
#       150
#       14846
#       30624
#       49582
#       67047
#       79980
#       95024
#
# Disc length: 1479 seconds
#
# Revision: 0
# Processed by: cddbd v1.4PL0 Copyright (c) Steve Scherf et al.
# Submitted via: CD-Transfer v1.0
#
DISCID=5c05c507
DTITLE=Gasoline - Gasoline
DYEAR=2001
DGENRE=
TTITLE0=Take My Wings And Fly
TTITLE1=Glorious Day
TTITLE2=Are You Lying To Me
TTITLE3=Alive
TTITLE4=Lost Inside You
TTITLE5=Easy Way Out
TTITLE6=Which Way To Turn
EXTD=
EXTT0=
EXTT1=
EXTT2=
EXTT3=
EXTT4=
EXTT5=
EXTT6=
PLAYORDER=
